<svg width="266" height="28" viewBox="0 0 266 28" fill="none" xmlns="http://www.w3.org/2000/svg">
<path d="M0.361438 28V2.08H21.9614C22.7534 2.08 23.4734 2.272 24.1214 2.656C24.7934 3.04 25.3214 3.568 25.7054 4.24C26.0894 4.888 26.2814 5.608 26.2814 6.4V23.68C26.2814 24.472 26.0894 25.204 25.7054 25.876C25.3214 26.524 24.7934 27.04 24.1214 27.424C23.4734 27.808 22.7534 28 21.9614 28H0.361438ZM4.68144 25.084H21.9614C22.3454 25.084 22.6694 24.952 22.9334 24.688C23.2214 24.4 23.3654 24.064 23.3654 23.68V6.4C23.3654 6.016 23.2214 5.692 22.9334 5.428C22.6694 5.14 22.3454 4.996 21.9614 4.996H4.68144C4.29744 4.996 3.96144 5.14 3.67344 5.428C3.40944 5.692 3.27744 6.016 3.27744 6.4V23.68C3.27744 24.064 3.40944 24.4 3.67344 24.688C3.96144 24.952 4.29744 25.084 4.68144 25.084ZM34.4889 28C33.6969 28 32.9649 27.808 32.2929 27.424C31.6449 27.016 31.1169 26.488 30.7089 25.84C30.3249 25.168 30.1329 24.436 30.1329 23.644V11.476C30.1329 10.684 30.3249 9.964 30.7089 9.316C31.1169 8.644 31.6449 8.116 32.2929 7.732C32.9649 7.324 33.6969 7.12 34.4889 7.12H47.0169C47.8329 7.12 48.5649 7.324 49.2129 7.732C49.8849 8.116 50.4129 8.644 50.7969 9.316C51.2049 9.964 51.4089 10.684 51.4089 11.476V19.036H33.0849V23.644C33.0849 24.028 33.2169 24.364 33.4809 24.652C33.7689 24.916 34.1049 25.048 34.4889 25.048H51.4089V28H34.4889ZM33.0849 16.084H48.4209V11.476C48.4209 11.092 48.2769 10.768 47.9889 10.504C47.7249 10.216 47.4009 10.072 47.0169 10.072H34.4889C34.1049 10.072 33.7689 10.216 33.4809 10.504C33.2169 10.768 33.0849 11.092 33.0849 11.476V16.084ZM64.7955 28L53.2755 7.12H56.7315L66.5235 25.12L76.3155 7.12H79.7715L68.2155 28H64.7955ZM87.1169 28C86.3249 28 85.5929 27.808 84.9209 27.424C84.2729 27.04 83.7569 26.524 83.3729 25.876C82.9889 25.204 82.7969 24.472 82.7969 23.68V22.672H85.7129V23.68C85.7129 24.064 85.8449 24.4 86.1089 24.688C86.3969 24.952 86.7329 25.084 87.1169 25.084H104.397C104.781 25.084 105.105 24.952 105.369 24.688C105.657 24.4 105.801 24.064 105.801 23.68V17.884C105.801 17.5 105.657 17.176 105.369 16.912C105.105 16.648 104.781 16.516 104.397 16.516H87.1169C86.3249 16.516 85.5929 16.324 84.9209 15.94C84.2729 15.532 83.7569 15.004 83.3729 14.356C82.9889 13.708 82.7969 12.988 82.7969 12.196V6.4C82.7969 5.608 82.9889 4.888 83.3729 4.24C83.7569 3.568 84.2729 3.04 84.9209 2.656C85.5929 2.272 86.3249 2.08 87.1169 2.08H104.397C105.189 2.08 105.909 2.272 106.557 2.656C107.229 3.04 107.757 3.568 108.141 4.24C108.525 4.888 108.717 5.608 108.717 6.4V7.408H105.801V6.4C105.801 6.016 105.657 5.692 105.369 5.428C105.105 5.14 104.781 4.996 104.397 4.996H87.1169C86.7329 4.996 86.3969 5.14 86.1089 5.428C85.8449 5.692 85.7129 6.016 85.7129 6.4V12.196C85.7129 12.58 85.8449 12.904 86.1089 13.168C86.3969 13.432 86.7329 13.564 87.1169 13.564H104.397C105.189 13.564 105.909 13.768 106.557 14.176C107.229 14.56 107.757 15.076 108.141 15.724C108.525 16.372 108.717 17.092 108.717 17.884V23.68C108.717 24.472 108.525 25.204 108.141 25.876C107.757 26.524 107.229 27.04 106.557 27.424C105.909 27.808 105.189 28 104.397 28H87.1169ZM116.755 28C115.963 28 115.231 27.808 114.559 27.424C113.911 27.016 113.383 26.488 112.975 25.84C112.591 25.168 112.399 24.436 112.399 23.644V11.476C112.399 10.684 112.591 9.964 112.975 9.316C113.383 8.644 113.911 8.116 114.559 7.732C115.231 7.324 115.963 7.12 116.755 7.12H129.283C130.099 7.12 130.831 7.324 131.479 7.732C132.151 8.116 132.679 8.644 133.062 9.316C133.471 9.964 133.675 10.684 133.675 11.476V23.644C133.675 24.436 133.471 25.168 133.062 25.84C132.679 26.488 132.151 27.016 131.479 27.424C130.831 27.808 130.099 28 129.283 28H116.755ZM116.755 25.048H129.283C129.667 25.048 129.991 24.916 130.255 24.652C130.543 24.364 130.687 24.028 130.687 23.644V11.476C130.687 11.092 130.543 10.768 130.255 10.504C129.991 10.216 129.667 10.072 129.283 10.072H116.755C116.371 10.072 116.035 10.216 115.747 10.504C115.483 10.768 115.351 11.092 115.351 11.476V23.644C115.351 24.028 115.483 24.364 115.747 24.652C116.035 24.916 116.371 25.048 116.755 25.048ZM141.013 28C140.221 28 139.489 27.808 138.817 27.424C138.169 27.016 137.641 26.488 137.233 25.84C136.849 25.168 136.657 24.436 136.657 23.644V0.279999H139.609V23.644C139.609 24.028 139.741 24.364 140.005 24.652C140.293 24.916 140.629 25.048 141.013 25.048H144.541V28H141.013ZM151.912 28C151.12 28 150.388 27.808 149.716 27.424C149.068 27.016 148.54 26.488 148.132 25.84C147.748 25.168 147.556 24.436 147.556 23.644V7.12H150.508V23.644C150.508 24.028 150.64 24.364 150.904 24.652C151.192 24.916 151.528 25.048 151.912 25.048H164.44C164.824 25.048 165.16 24.916 165.448 24.652C165.736 24.364 165.88 24.028 165.88 23.644V7.12H168.832V23.644C168.832 24.436 168.628 25.168 168.22 25.84C167.836 26.488 167.308 27.016 166.636 27.424C165.988 27.808 165.256 28 164.44 28H151.912ZM176.416 28C175.6 28 174.856 27.808 174.184 27.424C173.536 27.016 173.02 26.488 172.636 25.84C172.252 25.168 172.06 24.436 172.06 23.644V0.279999H175.012V7.12H184.048V10.072H175.012V23.644C175.012 24.028 175.144 24.364 175.408 24.652C175.696 24.916 176.032 25.048 176.416 25.048H184.048V28H176.416ZM186.966 28V7.12H189.918V28H186.966ZM186.966 3.232V0.279999H189.918V3.232H186.966ZM198.774 28C197.982 28 197.25 27.808 196.578 27.424C195.93 27.016 195.402 26.488 194.994 25.84C194.61 25.168 194.418 24.436 194.418 23.644V11.476C194.418 10.684 194.61 9.964 194.994 9.316C195.402 8.644 195.93 8.116 196.578 7.732C197.25 7.324 197.982 7.12 198.774 7.12H211.302C212.118 7.12 212.85 7.324 213.498 7.732C214.17 8.116 214.698 8.644 215.082 9.316C215.49 9.964 215.694 10.684 215.694 11.476V23.644C215.694 24.436 215.49 25.168 215.082 25.84C214.698 26.488 214.17 27.016 213.498 27.424C212.85 27.808 212.118 28 211.302 28H198.774ZM198.774 25.048H211.302C211.686 25.048 212.01 24.916 212.274 24.652C212.562 24.364 212.706 24.028 212.706 23.644V11.476C212.706 11.092 212.562 10.768 212.274 10.504C212.01 10.216 211.686 10.072 211.302 10.072H198.774C198.39 10.072 198.054 10.216 197.766 10.504C197.502 10.768 197.37 11.092 197.37 11.476V23.644C197.37 24.028 197.502 24.364 197.766 24.652C198.054 24.916 198.39 25.048 198.774 25.048ZM218.924 28V7.12H235.844C236.636 7.12 237.356 7.324 238.004 7.732C238.676 8.116 239.204 8.644 239.588 9.316C239.996 9.964 240.2 10.684 240.2 11.476V28H237.248V11.476C237.248 11.092 237.104 10.768 236.816 10.504C236.552 10.216 236.228 10.072 235.844 10.072H223.316C222.932 10.072 222.596 10.216 222.308 10.504C222.02 10.768 221.876 11.092 221.876 11.476V28H218.924ZM248.131 28C247.339 28 246.607 27.808 245.935 27.424C245.287 27.016 244.759 26.488 244.351 25.84C243.967 25.168 243.775 24.436 243.775 23.644V23.356H246.727V23.644C246.727 24.028 246.859 24.364 247.123 24.652C247.411 24.916 247.747 25.048 248.131 25.048H260.659C261.043 25.048 261.367 24.916 261.631 24.652C261.919 24.364 262.063 24.028 262.063 23.644V20.44C262.063 20.056 261.919 19.732 261.631 19.468C261.367 19.18 261.043 19.036 260.659 19.036H248.131C247.339 19.036 246.607 18.844 245.935 18.46C245.287 18.052 244.759 17.524 244.351 16.876C243.967 16.204 243.775 15.472 243.775 14.68V11.476C243.775 10.684 243.967 9.964 244.351 9.316C244.759 8.644 245.287 8.116 245.935 7.732C246.607 7.324 247.339 7.12 248.131 7.12H260.659C261.475 7.12 262.207 7.324 262.855 7.732C263.527 8.116 264.055 8.644 264.439 9.316C264.847 9.964 265.051 10.684 265.051 11.476V11.764H262.063V11.476C262.063 11.092 261.919 10.768 261.631 10.504C261.367 10.216 261.043 10.072 260.659 10.072H248.131C247.747 10.072 247.411 10.216 247.123 10.504C246.859 10.768 246.727 11.092 246.727 11.476V14.68C246.727 15.064 246.859 15.4 247.123 15.688C247.411 15.952 247.747 16.084 248.131 16.084H260.659C261.475 16.084 262.207 16.288 262.855 16.696C263.527 17.08 264.055 17.608 264.439 18.28C264.847 18.928 265.051 19.648 265.051 20.44V23.644C265.051 24.436 264.847 25.168 264.439 25.84C264.055 26.488 263.527 27.016 262.855 27.424C262.207 27.808 261.475 28 260.659 28H248.131Z" fill="#63D061"/>
</svg>
